<svg xmlns="http://www.w3.org/2000/svg" style="display:none">
  <!--
    MeteoValls Weather Icons Sprite (minimal line icons)
    Use: <svg class="wx wx--rain"><use href="/icons/weather.svg#rain"/></svg>
    viewBox: 0 0 64 64
  -->

  <symbol id="sun" viewBox="0 0 64 64">
    <circle cx="32" cy="32" r="10" fill="none" stroke="currentColor" stroke-width="4"/>
    <g stroke="currentColor" stroke-width="4" stroke-linecap="round">
      <path d="M32 6v8"/><path d="M32 50v8"/>
      <path d="M6 32h8"/><path d="M50 32h8"/>
      <path d="M13 13l6 6"/><path d="M45 45l6 6"/>
      <path d="M51 13l-6 6"/><path d="M19 45l-6 6"/>
    </g>
  </symbol>

  <symbol id="moon" viewBox="0 0 64 64">
    <path d="M40 10c-7 3-12 10-12 18 0 11 9 20 20 20 2 0 4 0 6-1-4 7-11 11-20 11-13 0-24-11-24-24 0-10 6-19 15-23 6-3 11-3 15-1z"
          fill="none" stroke="currentColor" stroke-width="4" stroke-linejoin="round"/>
  </symbol>

  <symbol id="cloud" viewBox="0 0 64 64">
    <path d="M20 46h26c8 0 14-6 14-13s-6-13-14-13c-1 0-2 0-3 .2C40 14 34 10 27 10 17 10 9 18 9 28c0 1 0 2 .2 3C5 33 3 37 3 41c0 3 3 5 7 5h10z"
          fill="none" stroke="currentColor" stroke-width="4" stroke-linejoin="round"/>
  </symbol>

  <symbol id="partly" viewBox="0 0 64 64">
    <!-- sun behind cloud -->
    <g transform="translate(-6,-6)">
      <circle cx="30" cy="30" r="7" fill="none" stroke="currentColor" stroke-width="4"/>
      <g stroke="currentColor" stroke-width="4" stroke-linecap="round">
        <path d="M30 14v5"/><path d="M30 41v5"/>
        <path d="M14 30h5"/><path d="M41 30h5"/>
        <path d="M19 19l4 4"/><path d="M37 37l4 4"/>
        <path d="M41 19l-4 4"/><path d="M23 37l-4 4"/>
      </g>
    </g>
    <path d="M20 50h26c8 0 14-6 14-13s-6-13-14-13c-1 0-2 0-3 .2C40 18 34 14 27 14 17 14 9 22 9 32c0 1 0 2 .2 3C5 37 3 41 3 45c0 3 3 5 7 5h10z"
          fill="none" stroke="currentColor" stroke-width="4" stroke-linejoin="round"/>
  </symbol>

  <symbol id="cloud-moon" viewBox="0 0 64 64">
    <!-- moon behind cloud -->
    <g transform="translate(6,-2)">
      <path d="M36 12c-5 2-9 8-9 14 0 9 7 16 16 16 2 0 3 0 5-1-3 5-9 8-15 8-11 0-20-9-20-20 0-8 5-15 12-18 4-2 8-2 11 1z"
            fill="none" stroke="currentColor" stroke-width="4" stroke-linejoin="round"/>
    </g>
    <path d="M20 50h26c8 0 14-6 14-13s-6-13-14-13c-1 0-2 0-3 .2C40 18 34 14 27 14 17 14 9 22 9 32c0 1 0 2 .2 3C5 37 3 41 3 45c0 3 3 5 7 5h10z"
          fill="none" stroke="currentColor" stroke-width="4" stroke-linejoin="round"/>
  </symbol>

  <symbol id="rain" viewBox="0 0 64 64">
    <path d="M20 36h26c8 0 14-6 14-13s-6-13-14-13c-1 0-2 0-3 .2C40 4 34 0 27 0 17 0 9 8 9 18c0 1 0 2 .2 3C5 23 3 27 3 31c0 3 3 5 7 5h10z"
          transform="translate(0,10)"
          fill="none" stroke="currentColor" stroke-width="4" stroke-linejoin="round"/>
    <g stroke="currentColor" stroke-width="4" stroke-linecap="round">
      <path d="M22 50l-4 8"/><path d="M34 50l-4 8"/><path d="M46 50l-4 8"/>
    </g>
  </symbol>

  <symbol id="drizzle" viewBox="0 0 64 64">
    <path d="M20 36h26c8 0 14-6 14-13s-6-13-14-13c-1 0-2 0-3 .2C40 4 34 0 27 0 17 0 9 8 9 18c0 1 0 2 .2 3C5 23 3 27 3 31c0 3 3 5 7 5h10z"
          transform="translate(0,10)"
          fill="none" stroke="currentColor" stroke-width="4" stroke-linejoin="round"/>
    <g stroke="currentColor" stroke-width="4" stroke-linecap="round">
      <path d="M24 52v6"/><path d="M36 52v6"/><path d="M48 52v6"/>
    </g>
  </symbol>

  <symbol id="storm" viewBox="0 0 64 64">
    <path d="M20 36h26c8 0 14-6 14-13s-6-13-14-13c-1 0-2 0-3 .2C40 4 34 0 27 0 17 0 9 8 9 18c0 1 0 2 .2 3C5 23 3 27 3 31c0 3 3 5 7 5h10z"
          transform="translate(0,10)"
          fill="none" stroke="currentColor" stroke-width="4" stroke-linejoin="round"/>
    <path d="M34 46l-8 10h8l-4 8 12-14h-8l4-4z"
          fill="none" stroke="currentColor" stroke-width="4" stroke-linejoin="round"/>
  </symbol>

  <symbol id="snow" viewBox="0 0 64 64">
    <path d="M20 36h26c8 0 14-6 14-13s-6-13-14-13c-1 0-2 0-3 .2C40 4 34 0 27 0 17 0 9 8 9 18c0 1 0 2 .2 3C5 23 3 27 3 31c0 3 3 5 7 5h10z"
          transform="translate(0,10)"
          fill="none" stroke="currentColor" stroke-width="4" stroke-linejoin="round"/>
    <g stroke="currentColor" stroke-width="4" stroke-linecap="round">
      <path d="M22 52h0"/><path d="M34 56h0"/><path d="M46 52h0"/>
    </g>
  </symbol>

  <symbol id="fog" viewBox="0 0 64 64">
    <path d="M20 34h26c8 0 14-6 14-13s-6-13-14-13c-1 0-2 0-3 .2C40 2 34-2 27-2 17-2 9 6 9 16c0 1 0 2 .2 3C5 21 3 25 3 29c0 3 3 5 7 5h10z"
          transform="translate(0,12)"
          fill="none" stroke="currentColor" stroke-width="4" stroke-linejoin="round"/>
    <g stroke="currentColor" stroke-width="4" stroke-linecap="round" opacity=".95">
      <path d="M12 50h40"/><path d="M8 56h44"/><path d="M14 62h36"/>
    </g>
  </symbol>

  <symbol id="wind" viewBox="0 0 64 64">
    <g fill="none" stroke="currentColor" stroke-width="4" stroke-linecap="round" stroke-linejoin="round">
      <path d="M10 24h30c6 0 10-4 10-9 0-4-3-7-7-7-5 0-8 3-8 8"/>
      <path d="M10 38h38c5 0 9-3 9-8 0-4-3-7-7-7-4 0-7 3-7 7"/>
      <path d="M10 52h26c5 0 9-3 9-8 0-4-3-7-7-7"/>
    </g>
  </symbol>
</svg>
